<svg xmlns="http://www.w3.org/2000/svg" viewBox="0 0 11.565 11.565">
  <defs>
    <style>
      .cls-1 {
        fill: #4bce6e;
      }

      .cls-2 {
        fill: #61ff8b;
      }

      .cls-3 {
        fill: none;
        stroke: #0c0f15;
      }
    </style>
  </defs>
  <g id="auth_accepted" transform="translate(531.638 553.947)">
    <path id="Vereinigungsmenge_1" data-name="Vereinigungsmenge 1" class="cls-1" d="M4.741,8.766H4.7L3.53,9.443,2.842,8.252l.119.032L2.882,8.26l-.176-.088.038.038H1.368V6.844l-.192-.253L0,5.913.684,4.727V4.716L0,3.53l1.176-.679.192-.345V1.233H2.744l-.005.005.115-.067L3.53,0,4.722.688,4.7.695h.052L4.722.688,5.913,0l.679,1.176.109.059H8.075V2.57l.183.294-.006-.021,1.191.688L8.756,4.721h0l.687,1.191L8.252,6.6h0l-.2.258.024-.024V8.21H6.724L6.6,8.261,5.913,9.443Z" transform="translate(-530.577 -552.886)"/>
    <path id="Vereinigungsmenge_2" data-name="Vereinigungsmenge 2" class="cls-2" d="M4.741,8.766H4.7L3.53,9.443,2.842,8.252l.119.032L2.882,8.26l-.176-.088.038.038H1.368V6.844l-.192-.253L0,5.913.684,4.727V4.716L0,3.53l1.176-.679.192-.345V1.233H2.744l-.005.005.115-.067L3.53,0,4.722.688,4.7.695h.052L4.722.688,5.913,0l.679,1.176.109.059H8.075V2.57l.183.294-.006-.021,1.191.688L8.756,4.721h0l.687,1.191L8.252,6.6h0l-.2.258.024-.024V8.21H6.724L6.6,8.261,5.913,9.443Z" transform="matrix(0.966, 0.259, -0.259, 0.966, -529.194, -553.947)"/>
    <path id="Pfad_141" data-name="Pfad 141" class="cls-3" d="M-550.887-484.934l-2.1,2.242-1.048-.962" transform="translate(26.849 -64.448)"/>
  </g>
</svg>
