<svg xmlns="http://www.w3.org/2000/svg" viewBox="0 0 15.089 15.089">
  <defs>
    <style>
      .cls-1 {
        fill: #fff;
      }
    </style>
  </defs>
  <path id="ic_do_not_disturb_alt_24px" class="cls-1" d="M9.545,2a7.545,7.545,0,1,0,7.545,7.545A7.567,7.567,0,0,0,9.545,2ZM3.509,9.545A6.053,6.053,0,0,1,9.545,3.509a5.946,5.946,0,0,1,3.7,1.283l-8.45,8.45A5.946,5.946,0,0,1,3.509,9.545ZM9.545,15.58a5.946,5.946,0,0,1-3.7-1.283l8.45-8.45a5.946,5.946,0,0,1,1.283,3.7A6.053,6.053,0,0,1,9.545,15.58Z" transform="translate(-2 -2)"/>
</svg>
