<svg xmlns="http://www.w3.org/2000/svg" viewBox="0 0 29.905 41.148">
  <defs>
    <style>
      .cls-1 {
        fill: #fff;
      }
    </style>
  </defs>
  <g id="opskins_logo" transform="translate(-15.455 -26.66)">
    <path id="Pfad_148" data-name="Pfad 148" class="cls-1" d="M30,26.66c.277,0,.555,0,.832,0l-.013.022c.267-.006.533.022.8.01l-.021.022c.281-.005.557.052.837.048l-.017.02a1.8,1.8,0,0,0,.326.009l-.022.025a2.162,2.162,0,0,0,.293.013l-.019.022c.084.006.168.014.253.015l-.01.018a1.738,1.738,0,0,0,.249.014l-.012.021c.071.007.141.014.213.014l0,.02c.069.007.138.013.207.015l0,.02c.071.006.142.012.213.014l-.014.022c.06,0,.12.009.181.011l-.006.022c.058,0,.116.01.174.012l0,.022c.059,0,.117.01.176.012l-.009.018c.106.013.209.045.316.052l-.009.02c.061,0,.121.01.182.011l-.021.021c.174.025.34.084.512.12.043.014.089.023.133.035a.424.424,0,0,0,.156.029l-.01.018c.083.016.165.045.25.053L36.1,27.5l.094.016a.569.569,0,0,0,.157.035l-.015.022.115.006-.008.023.093.013a1.53,1.53,0,0,0,.362.106l-.017.017a1.324,1.324,0,0,0,.218.049l-.013.026.118,0-.016.024a1.546,1.546,0,0,1,.165.048l.1.038a.963.963,0,0,0,.122.031l-.006.015a1.373,1.373,0,0,1,.16.053.65.65,0,0,0,.119.033l-.006.022.114.009-.013.042.052-.016a.8.8,0,0,0,.295.111l0,.023c.08.014.149.06.228.08a.479.479,0,0,0,.182.068l0,.021c.083.016.152.073.237.082l0,.032.047-.007a.342.342,0,0,0,.19.077l-.006.034.07-.01.005.042.047-.006a1.748,1.748,0,0,0,.392.178v.033l.067-.01,0,.043.063-.009.008.043.059-.01.008.042.046,0,.082.042.009.029.058-.008.01.041.047,0,.067.049.081.027.01.032.059-.009.007.045.046-.008c.029.022.059.043.09.062.143.069.279.153.423.22l.09.052c.153.085.3.17.454.252a.91.91,0,0,0,.253.135l-.007.017a1.4,1.4,0,0,0,.164.084.556.556,0,0,0,.171.1,2.53,2.53,0,0,0,.273.171.635.635,0,0,0,.1.066.765.765,0,0,0,.168.1.294.294,0,0,0,.1.069c.238.16.478.318.716.477a1.047,1.047,0,0,0,.1.071c.115.076.223.165.343.235a1.3,1.3,0,0,0,.249.172v.014c.042.029.083.059.127.085.179.139.361.276.545.408a1.616,1.616,0,0,0,.285.208l-.009.014c.109.065.2.16.309.224q0,10.694,0,21.388l-.025-.011c0,.128-.012.256-.011.384L45.3,54.21c-.007.081-.015.164-.015.246l-.024-.011c0,.06-.01.12-.011.18l-.023-.009c0,.042-.009.084-.014.127a.53.53,0,0,0-.038.136.48.48,0,0,0-.03.157l-.019-.013-.015.1a.455.455,0,0,0-.036.161l-.022-.025c0,.031-.007.094-.009.125l-.025-.02c0,.031-.006.092-.009.123l-.02-.02a.992.992,0,0,1-.053.166.918.918,0,0,0-.033.118l-.016,0a1.367,1.367,0,0,0-.051.173l-.019,0a1.032,1.032,0,0,0-.049.175l-.033-.007c0,.018.006.053.009.071l-.042.005c0,.012,0,.035.006.047a1.181,1.181,0,0,0-.11.21l-.033.067a2.3,2.3,0,0,1-.133.236c0,.008,0,.023.006.03a1.011,1.011,0,0,0-.146.243.76.76,0,0,0-.1.17.667.667,0,0,0-.1.169,2.108,2.108,0,0,0-.137.208c-.069.1-.139.2-.2.306-.026.031-.049.065-.075.1l-.031.072a1.13,1.13,0,0,0-.206.269.305.305,0,0,0-.064.072c-.033.045-.07.088-.1.136-.094.112-.185.227-.275.341-.056.068-.118.131-.17.2s-.12.134-.176.2c-.021.021-.042.044-.063.066l-.032.044a3.213,3.213,0,0,0-.277.313l-.021,0-.008.035-.035.009.01.031-.039-.007.006.038h-.026c-.275.31-.582.592-.874.887h-.025v.037l-.028-.009-.01.033-.035.006.013.034-.044-.009v.028a.194.194,0,0,0-.08.072,2.738,2.738,0,0,0-.27.252l-.017,0-.011.031-.035.005.006.018c-.107.067-.185.169-.286.244a.424.424,0,0,0-.069.064,2,2,0,0,0-.166.143l-.035.03c-.069.046-.123.112-.194.157l0,.013c-.075.043-.13.111-.2.158l0,.013a1.152,1.152,0,0,0-.177.14l-.037.03c-.056.04-.107.086-.164.124l.009.012a2.316,2.316,0,0,0-.321.243c-.1.069-.2.153-.3.222l0,.013a.53.53,0,0,0-.147.105.774.774,0,0,0-.136.1.865.865,0,0,0-.137.1c-.129.085-.253.178-.374.273a2.3,2.3,0,0,0-.239.17,2.006,2.006,0,0,0-.239.171.276.276,0,0,0-.1.067,4.114,4.114,0,0,0-.343.239l-.093.048,0,.02a.177.177,0,0,0-.112.071.22.22,0,0,0-.1.066.369.369,0,0,0-.1.067.512.512,0,0,0-.1.069.251.251,0,0,0-.1.069.314.314,0,0,0-.1.067.307.307,0,0,0-.1.069c-.13.069-.249.158-.373.238a.447.447,0,0,0-.1.069,1.822,1.822,0,0,0-.271.173.823.823,0,0,0-.1.045l.007.019a.425.425,0,0,0-.184.106,2.227,2.227,0,0,0-.251.146,1.714,1.714,0,0,0-.193.124.522.522,0,0,0-.17.1.49.49,0,0,0-.17.1c-.058.022-.109.059-.164.085l.007.017a43.136,43.136,0,0,1-.4.218.9.9,0,0,1-.093.053c-.054.028-.105.061-.161.086l.006.03-.049-.009c-.081.07-.187.1-.27.168a1.864,1.864,0,0,0-.217.116c-.03.018-.061.035-.092.052a1.692,1.692,0,0,0-.308.181l-.031-.005a2.394,2.394,0,0,1-.332.182l.006.019-.086.041-.033,0c-.172.121-.382.182-.547.312l-.044-.014-.01.048-.06-.01-.006.034a.7.7,0,0,0-.215.1c-.093.042-.184.088-.271.139a.756.756,0,0,0-.138.067c-.06.026-.116.058-.175.085-.09.047-.182.09-.271.139-.127.078-.245-.028-.366-.056l0-.034L30.1,67.7v-.043l-.065.009-.007-.045-.06.012-.007-.046L29.9,67.6l-.005-.045-.062.011-.006-.044-.062.01-.009-.047-.045.012a.782.782,0,0,0-.094-.065c-.164-.08-.326-.165-.488-.248l-.07-.035c-.077-.043-.157-.083-.235-.123l-.07-.046-.047.01,0-.029c-.137-.067-.272-.137-.4-.218l-.029.005c-.1-.092-.239-.125-.344-.21l-.03.006c-.078-.08-.192-.1-.275-.176l-.032.006a1.033,1.033,0,0,0-.241-.149.9.9,0,0,1-.09-.052,1.218,1.218,0,0,0-.149-.081,1.475,1.475,0,0,0-.239-.136.835.835,0,0,0-.251-.137l.005-.017c-.056-.026-.106-.061-.162-.085a.69.69,0,0,0-.171-.1.577.577,0,0,0-.171-.1.657.657,0,0,0-.171-.106.605.605,0,0,0-.171-.1,1.856,1.856,0,0,0-.188-.125c-.028-.016-.056-.031-.083-.045a.729.729,0,0,0-.17-.1.342.342,0,0,0-.1-.067.6.6,0,0,0-.169-.1.212.212,0,0,0-.1-.07.5.5,0,0,0-.1-.068.481.481,0,0,0-.179-.1l.005-.021-.1-.047a.26.26,0,0,0-.1-.069.58.58,0,0,0-.1-.069c-.2-.136-.408-.274-.613-.409a.428.428,0,0,0-.1-.067.215.215,0,0,0-.1-.068,3.944,3.944,0,0,0-.342-.239,1.285,1.285,0,0,0-.138-.1c-.033-.025-.067-.047-.1-.068a2.662,2.662,0,0,0-.238-.171.813.813,0,0,0-.137-.1q-.338-.258-.681-.511a.59.59,0,0,0-.15-.108l.01-.014c-.242-.158-.452-.363-.687-.53l0-.012c-.068-.047-.125-.108-.193-.154a2,2,0,0,0-.213-.174V61.68c-.087-.049-.145-.134-.229-.187a2.431,2.431,0,0,0-.25-.21l.005-.016-.047-.028c-.075-.062-.139-.136-.216-.2l-.067-.069-.051-.028,0-.014c-.131-.1-.236-.228-.363-.332a.163.163,0,0,0-.084-.068l.007-.035-.044.014.011-.039-.041,0,0-.04-.038.007.008-.036-.037,0-.006-.036-.031.011.007-.04-.04.006.005-.04-.04,0,.005-.04-.026,0-.047-.047,0-.026-.025,0-.046-.046,0-.025-.04,0,0-.04-.04,0,.006-.04-.04.006.007-.04-.04.008L18.9,60l-.044.007.014-.035h-.04l0-.038-.02,0a.511.511,0,0,0-.068-.082c-.109-.123-.234-.231-.335-.361l-.013,0-.029-.052-.067-.066c-.055-.071-.12-.132-.177-.2l-.029-.036c-.055-.071-.117-.136-.175-.2s-.109-.125-.155-.195H17.75c-.073-.125-.19-.218-.256-.347l-.016.012a.457.457,0,0,0-.106-.15c-.027-.044-.056-.086-.086-.128h-.015a1.4,1.4,0,0,0-.171-.25.54.54,0,0,0-.068-.1c-.067-.1-.134-.206-.2-.307a.277.277,0,0,0-.07-.1.606.606,0,0,0-.1-.17.76.76,0,0,0-.1-.17,1,1,0,0,0-.146-.243c0-.008,0-.023.006-.031a4.2,4.2,0,0,1-.2-.372l-.035-.072a1.033,1.033,0,0,1-.046-.118l-.031-.006.01-.066-.034,0a.422.422,0,0,0-.069-.185.9.9,0,0,0-.068-.171,1,1,0,0,0-.066-.17c-.011-.035-.021-.07-.033-.1-.037-.1-.065-.206-.106-.306,0-.025-.01-.075-.013-.1l-.022.02a.259.259,0,0,0-.034-.16.47.47,0,0,0-.033-.137c-.005-.043-.011-.085-.015-.128l-.021.01c0-.059-.009-.118-.013-.176l-.021,0a.687.687,0,0,0-.031-.222c0-.136-.045-.266-.051-.4l-.021.014c-.016-.826,0-1.652-.007-2.477q0-9.491,0-18.981a.387.387,0,0,0,.112-.066l.037-.036c.084-.062.155-.139.235-.206l.036-.031c.07-.047.124-.115.2-.157l0-.012a1.97,1.97,0,0,0,.17-.125V31.81c.063-.034.113-.087.174-.124l-.006-.011a.677.677,0,0,0,.149-.107,1.02,1.02,0,0,0,.2-.166,2.754,2.754,0,0,0,.34-.244c.044-.026.086-.056.128-.085l0-.014a.391.391,0,0,0,.113-.07c.082-.053.161-.111.24-.17a.7.7,0,0,0,.1-.069c.07-.042.136-.09.2-.136.1-.067.207-.134.308-.2a.609.609,0,0,0,.1-.069,2.241,2.241,0,0,0,.27-.173l.1-.047-.007-.017a.442.442,0,0,0,.182-.1.582.582,0,0,0,.171-.1c.057-.025.108-.06.164-.086l-.006-.03.049.009c.06-.06.151-.076.205-.144l.032.008c.082-.074.2-.1.275-.178l.031.007a3.5,3.5,0,0,1,.387-.214.772.772,0,0,0,.092-.064l.046.01.009-.046.059.01.007-.034a.41.41,0,0,0,.15-.064l.071-.043.046,0L20.636,29l.06.01.008-.044.062.01,0-.043.065.009,0-.046.065.016,0-.035a2.008,2.008,0,0,0,.325-.137L21.3,28.7l.049,0v-.032a.714.714,0,0,0,.257-.11l.051.006v-.033a.391.391,0,0,0,.191-.076l.05.009-.005-.032c.059-.012.116-.034.174-.051v-.02a.517.517,0,0,0,.183-.067.856.856,0,0,0,.17-.068c.053-.016.106-.035.16-.052l-.006-.015c.059-.011.116-.033.175-.048l0-.02a.805.805,0,0,0,.119-.03.458.458,0,0,1,.164-.048L23,27.993l.122-.012-.01-.021a1.021,1.021,0,0,0,.123-.03l.1-.039c.054-.016.107-.036.163-.047l-.009-.021a2.913,2.913,0,0,0,.458-.135c.035-.011.07-.023.1-.037l.091-.014-.009-.022.118-.009-.021-.021a.708.708,0,0,0,.262-.072l.1-.009-.01-.024a.4.4,0,0,0,.155-.033l.1-.013-.01-.025.142-.009-.007-.021a.7.7,0,0,0,.159-.034c.044-.009.088-.02.132-.033s.091-.021.135-.035a.665.665,0,0,0,.137-.037l.124-.015,0-.022.142-.009-.007-.024a.455.455,0,0,0,.188-.032l.129-.013-.014-.023c.06,0,.121-.007.181-.01l-.007-.024c.06,0,.121-.007.181-.011l-.014-.022a.7.7,0,0,0,.228-.032c.052-.005.105-.013.158-.016l-.009-.021c.071,0,.142-.008.212-.013L27,26.935c.072,0,.143-.008.215-.012L27.2,26.9a1.768,1.768,0,0,0,.247-.012l-.01-.02a2.39,2.39,0,0,0,.256-.014l-.024-.021a2.374,2.374,0,0,0,.295-.013l-.021-.02c.118,0,.235-.007.353-.016l-.006-.018c.127,0,.253-.01.38-.016l-.005-.019c.152.007.3-.011.456-.013l-.019-.021c.3.009.6-.019.9-.013L30,26.66m-.31,1.807.021.021c-.22-.009-.439.006-.659.015l.006.02c-.137-.006-.274.008-.411.015l0,.019c-.106,0-.212.007-.318.014l.015.023a2.195,2.195,0,0,0-.435.035c-.038.015-.115-.015-.127.035a1.189,1.189,0,0,0-.231.008l.006.02c-.072,0-.142.007-.213.012l.011.021c-.071,0-.142.007-.213.014l.005.022a.537.537,0,0,0-.219.031l-.158.017.008.02a.529.529,0,0,0-.193.029c-.1.015-.2.042-.295.054l.006.016a1.486,1.486,0,0,0-.324.066,1.042,1.042,0,0,0-.137.033c-.046.01-.091.02-.135.033a2.261,2.261,0,0,1-.236.055l.021.019-.147.011.006.02c-.084.01-.164.036-.246.054l.008.015a.787.787,0,0,0-.255.071l-.094.012.01.023-.114.007.013.022c-.183.022-.345.117-.525.151l.019.022-.12.008.015.027-.114.008.007.021a.838.838,0,0,0-.12.031.534.534,0,0,1-.164.048l.02.02a.453.453,0,0,0-.129.035,2.577,2.577,0,0,0-.269.106.959.959,0,0,0-.171.068c-.077.022-.147.063-.224.082v.02c-.086,0-.154.067-.238.079v.022a2.291,2.291,0,0,0-.238.083l0,.017-.083.029a2.574,2.574,0,0,0-.236.111,1.238,1.238,0,0,1-.12.045l0,.031-.066-.007,0,.031a2.01,2.01,0,0,0-.345.154,2.131,2.131,0,0,0-.357.2l-.043-.014-.008.038a2.434,2.434,0,0,0-.366.183c-.03.019-.06.037-.092.054a.87.87,0,0,0-.238.148l-.033-.007c-.061.056-.142.082-.2.135a.558.558,0,0,0-.17.1.519.519,0,0,0-.169.1.531.531,0,0,0-.168.1c-.033.015-.066.031-.1.047l.007.018a1.353,1.353,0,0,0-.285.17.458.458,0,0,0-.1.069.214.214,0,0,0-.1.069.228.228,0,0,0-.1.068.247.247,0,0,0-.1.067,3.8,3.8,0,0,0-.342.237,2.433,2.433,0,0,0-.237.171,1.018,1.018,0,0,0-.136.1.991.991,0,0,0-.137.1,3.325,3.325,0,0,0-.306.238,1.422,1.422,0,0,0-.171.136c-.068.047-.127.106-.194.156l0,.012a1.926,1.926,0,0,0-.228.191l-.049.028.006.016a.134.134,0,0,0-.082.082l-.018,0a.759.759,0,0,0-.044.363q0,8.838,0,17.677a8.969,8.969,0,0,0,.1,1.836,1.514,1.514,0,0,0,.071.306.7.7,0,0,0,.033.136l.015.1.019-.017a.631.631,0,0,0,.03.154c.012.035.024.069.037.1a.639.639,0,0,1,.044.167l.026-.023c0,.03.007.089.01.119l.022-.008a1.673,1.673,0,0,0,.048.174h.02a2.056,2.056,0,0,0,.083.238h.02a3.751,3.751,0,0,0,.253.536c.037.048.05.11.09.158a.874.874,0,0,0,.1.17.648.648,0,0,0,.1.17c.116.211.262.4.393.606l.015,0a1.185,1.185,0,0,0,.172.249,1.205,1.205,0,0,0,.1.137c.036.058.086.106.12.165l.012-.007a.789.789,0,0,0,.139.182,1.3,1.3,0,0,0,.14.169l.027.036c.054.071.116.134.174.2l.034.039c.088.119.205.211.293.33h.027l-.011.03.037,0v.038l.037-.009-.006.046.027-.007a.182.182,0,0,0,.068.082c.218.235.446.462.681.681a.163.163,0,0,0,.083.066l-.015.025.048,0,0,.045.032-.011.041.045-.006.026h.026c.11.11.222.218.34.32l.048.031,0,.014c.1.065.168.158.263.224a2.4,2.4,0,0,0,.25.208l0,.011c.069.046.126.109.195.157a2.129,2.129,0,0,0,.207.168.9.9,0,0,0,.18.14l0,.012c.058.034.1.085.162.12a3.361,3.361,0,0,0,.308.238.421.421,0,0,0,.149.1l-.008.013c.142.093.265.213.414.3l0,.012c.042.029.083.059.127.086a1.344,1.344,0,0,0,.249.172v.015c.079.046.149.107.228.154.11.085.224.163.341.238a.289.289,0,0,0,.114.069l0,.015c.31.2.6.422.922.6l-.005.016.1.049c.154.11.318.207.479.307a1.37,1.37,0,0,0,.169.1.98.98,0,0,0,.1.068.862.862,0,0,1,.086.052c.085.048.164.107.252.15a.964.964,0,0,0,.17.1.9.9,0,0,0,.251.139l-.006.016a1.535,1.535,0,0,0,.163.084c.06.057.144.076.2.135l.049-.01-.007.03c.056.025.108.058.164.087a.756.756,0,0,1,.09.054,1.029,1.029,0,0,1,.181.111l.034-.007c.073.085.193.1.273.18l.033-.009a1.371,1.371,0,0,0,.31.183l.09.053a4.184,4.184,0,0,1,.384.216l.033-.009a3.782,3.782,0,0,0,.514.281.43.43,0,0,0,.138.068c.031.02.063.04.1.058a.688.688,0,0,0,.121.047l.006.033.06-.01.008.044.06-.009.009.044.059-.01.01.046L30,65.246l0,.044.067-.006v.04l.067-.005.007.042.059-.011.009.044.06-.009.01.046.042-.009a.154.154,0,0,0,.175.017c.332-.163.662-.331.992-.5.032-.02.063-.042.093-.064l.045.01.009-.045.049,0c.143-.094.3-.163.452-.246q.048-.029.093-.062h.032c.106-.084.244-.116.343-.209l.031.008c.08-.077.2-.094.274-.179l.033.009c.081-.072.187-.1.273-.168a1.492,1.492,0,0,0,.238-.137,1.357,1.357,0,0,0,.236-.136.681.681,0,0,0,.17-.1c.058-.023.108-.06.165-.085l-.007-.03.046.007c.066-.049.139-.085.206-.133a.964.964,0,0,0,.17-.1c.116-.06.225-.134.336-.2a.539.539,0,0,0,.106-.068,1.153,1.153,0,0,0,.167-.1.5.5,0,0,0,.106-.068,4.027,4.027,0,0,0,.375-.239l.1-.048-.006-.017a.492.492,0,0,0,.123-.065c.269-.185.549-.354.809-.551a.232.232,0,0,0,.1-.069A3.8,3.8,0,0,0,37,61.612a2.371,2.371,0,0,0,.239-.172c.043-.026.084-.057.127-.084l0-.015c.243-.143.453-.338.686-.5l-.006-.014a.508.508,0,0,0,.148-.1c.057-.037.106-.086.165-.12l-.008-.012a2.461,2.461,0,0,0,.318-.243l.038-.032c.055-.038.1-.085.158-.123l0-.011a2.337,2.337,0,0,0,.215-.174c.071-.052.135-.113.2-.172l.037-.029c.084-.064.158-.14.239-.207.1-.078.189-.173.285-.257l.047-.032V59.3a.371.371,0,0,0,.08-.067c.144-.127.277-.267.418-.4l.045-.038v-.024h.035V58.74l.024,0,.046-.046,0-.012.046-.046.026,0,0-.04.039.005-.005-.04.04.005,0-.026.046-.044h.022V58.47h.024l.037-.045c.139-.158.305-.3.43-.467l.016,0,.028-.047c.074-.085.158-.161.225-.252l.032-.038a2.609,2.609,0,0,0,.17-.2,1.374,1.374,0,0,0,.138-.17.83.83,0,0,0,.139-.182l.013.006c.042-.085.128-.14.157-.232a2.471,2.471,0,0,0,.3-.411.206.206,0,0,0,.069-.111l.02,0c.016-.032.031-.064.046-.1a.232.232,0,0,0,.069-.1.955.955,0,0,0,.071-.1,2.377,2.377,0,0,0,.135-.238c.071-.08.1-.189.169-.269l-.008-.032a1.938,1.938,0,0,0,.25-.495l.031,0-.005-.047a.375.375,0,0,0,.076-.189l.023,0c.015-.059.036-.115.046-.174l.019.006a1.124,1.124,0,0,1,.05-.159c.012-.034.024-.067.034-.1s.024-.07.037-.1a.559.559,0,0,0,.028-.151l.024.009c0-.024.007-.071.01-.095a.388.388,0,0,0,.035-.153l.019,0c0-.042.01-.082.015-.123a.4.4,0,0,0,.028-.186h.029c0-.07.007-.139.009-.208l.021.009a1.691,1.691,0,0,0,.01-.252l.022.019a3.984,3.984,0,0,0,.014-.464l.025.026c0-.585,0-1.169,0-1.753l-.216-.014.215-.014c0-.059,0-.118,0-.176l-.211-.014.211-.014c0-.059,0-.118,0-.176l-.274-.014.274-.014q-.006-1.195,0-2.39l-.246-.014.246-.014q0-7.1,0-14.193a.786.786,0,0,0-.015-.133l-.033-.068a.418.418,0,0,0-.109-.1,1.375,1.375,0,0,0-.136-.1.838.838,0,0,0-.138-.1.39.39,0,0,0-.148-.1l.009-.014c-.107-.065-.2-.156-.3-.221-.087-.075-.182-.137-.273-.205a.916.916,0,0,0-.1-.069c-.045-.036-.09-.072-.138-.1s-.066-.046-.1-.067c-.079-.059-.159-.118-.242-.17q-.1-.072-.2-.137c-.033-.025-.067-.048-.1-.068a1.041,1.041,0,0,0-.1-.068.785.785,0,0,0-.1-.067.661.661,0,0,0-.1-.068,2.827,2.827,0,0,0-.272-.171,1.865,1.865,0,0,0-.272-.168.611.611,0,0,0-.171-.1.62.62,0,0,0-.169-.1.7.7,0,0,0-.17-.1,1.639,1.639,0,0,0-.239-.138c-.107-.078-.235-.121-.339-.2l-.048.011,0-.03c-.125-.056-.24-.133-.366-.187a.769.769,0,0,1-.1-.063l-.048,0-.009-.043-.06.009-.008-.044-.059.01-.009-.044-.059.01-.009-.044-.06.01-.008-.043L39,30.573l-.007-.043-.06.01L38.92,30.5l-.059.009-.008-.031a4.528,4.528,0,0,0-.44-.184l0-.032-.066.007-.005-.029c-.106-.026-.195-.1-.3-.118V30.1c-.078-.02-.148-.062-.225-.085a.4.4,0,0,0-.186-.066l0-.021c-.079-.017-.15-.058-.226-.081q-.084-.038-.17-.072a1.192,1.192,0,0,0-.122-.033l.01-.014a1.356,1.356,0,0,1-.16-.054.72.72,0,0,0-.121-.032l.01-.021-.116-.01.016-.022a1.671,1.671,0,0,1-.165-.049c-.033-.013-.067-.025-.1-.036l-.1-.034-.1-.034c-.034-.013-.069-.024-.1-.034s-.07-.023-.105-.032a.85.85,0,0,0-.258-.068l.017-.023-.115-.006.005-.023-.093-.014a1.8,1.8,0,0,0-.237-.073.591.591,0,0,0-.155-.031l.01-.021L35.1,29.1l.016-.025-.15-.009.012-.021a3.746,3.746,0,0,0-.422-.084l.013-.021-.143-.009,0-.023c-.059,0-.118-.011-.176-.012l.013-.022-.125-.012a.726.726,0,0,0-.185-.038,2.518,2.518,0,0,0-.384-.064l.009-.022c-.071-.005-.143-.011-.214-.013l.012-.022c-.072,0-.143-.011-.215-.013l.009-.02c-.084-.006-.168-.014-.251-.014l.018-.02a2.239,2.239,0,0,0-.253-.013l.01-.02a2.434,2.434,0,0,0-.282-.014l.01-.019c-.118-.009-.236-.019-.354-.016l.014-.019c-.14-.007-.28-.019-.421-.014l.011-.02c-.233-.009-.466-.021-.7-.013L31,28.464C30.565,28.459,30.125,28.456,29.686,28.467Z"/>
    <path id="Pfad_149" data-name="Pfad 149" class="cls-1" d="M148.35,171.695c.187.008.374-.014.561-.012l-.018-.022c.4,0,.809,0,1.214,0l-.022.021c.2,0,.4.022.6.014l-.024.022c.134,0,.268.019.4.012l-.032.022c.078,0,.156.012.234.013a1.009,1.009,0,0,0,.3.034l-.011.02c.065,0,.131.011.2.017a.78.78,0,0,0,.262.032l-.02.022c.061,0,.122.009.183.011l0,.02c.051,0,.1.011.154.017a.667.667,0,0,0,.189.033v.019c.058.005.116.012.174.014l-.011.022.127.014a.444.444,0,0,0,.191.032l-.014.027.149.005-.012.029.15.005-.016.028.1.009a.35.35,0,0,0,.156.033l-.011.022.095.014a.4.4,0,0,0,.154.033l-.009.026.115.006-.013.022.093.014c.034.014.069.026.1.037.136.043.27.093.407.135l.1.039a1.038,1.038,0,0,0,.12.031l0,.015a1.613,1.613,0,0,1,.157.054.724.724,0,0,0,.121.033l-.012.016c.056.014.11.033.165.052a.484.484,0,0,0,.181.065l0,.019a1.3,1.3,0,0,0,.172.051l0,.032.049-.007a.894.894,0,0,0,.254.11l.009.023c.13.029.236.122.368.149l0,.031.062-.009.008.031c.041.014.081.03.121.048a2.394,2.394,0,0,0,.271.135c.05.042.12.051.166.1l.049-.006.009.045.061-.014-.006.029a3.806,3.806,0,0,0,.382.187l-.007.019a.743.743,0,0,1,.2.115l.035-.008a.393.393,0,0,0,.172.112.633.633,0,0,0,.171.1.594.594,0,0,0,.171.1,1.244,1.244,0,0,0,.285.173l-.009.017.1.049a.442.442,0,0,0,.1.069.956.956,0,0,0,.1.068,1.015,1.015,0,0,0,.1.068.987.987,0,0,0,.1.068.733.733,0,0,0,.1.068c.112.081.224.165.342.237a3.246,3.246,0,0,0,.386.275l0,.016c.152.1.287.22.437.322.1.084.2.163.3.242l.048.033v.026h.04l-.018.044.04-.023c0,.05.009.1.014.151l.021-.011c0,.109,0,.218,0,.327l-.023-.027,0,.1.025-.026a3.492,3.492,0,0,0,0,.391l-.055,0,.049.033c.005.177.006.355,0,.532l-.045.034.05,0c0,.036,0,.108,0,.144l-.057.014.058.014c0,.059,0,.118,0,.177l-.062.013.062.014c0,.172,0,.345,0,.518l-.061.014.061.014q-.005.26,0,.519l-.054,0,.049.033c.009.351,0,.7,0,1.054l-.061.013.061.014v.143l-.061.013.062.014c0,.1,0,.21,0,.315l-.055,0,.049.032c.007.113,0,.227,0,.34l-.053,0c.1.038.036.16.053.237l-.054,0c.1.038.036.162.056.24l-.022-.02q0,.1,0,.191l.021-.021c-.008.32,0,.639-.005.959l-.049.033.054,0c0,.082,0,.165,0,.247l-.059.013.059.015c0,.106,0,.213,0,.319l-.023-.022,0,.095.024-.028c-.013.348-.005.7,0,1.044l-.022-.014c0,.028,0,.083,0,.111l.022-.01c0,.12,0,.239,0,.359l-.023-.023c0,.254,0,.509,0,.763l.217.014-.217.014q.006.752,0,1.5l.28.014-.278.014c0,.038,0,.116,0,.155l.023-.03c0,.066,0,.132,0,.2l-.024-.028c0,.845.005,1.692,0,2.537l.273.014-.273.014q0,.139,0,.278l.215.015-.214.014c0,.041,0,.123,0,.163l.02-.06c0,.044,0,.133,0,.178h-.054l.049.033c.009.139,0,.279.006.419l-.021-.033,0,.094.023-.018c-.005.243-.005.486,0,.729l-.021-.008c.009.244-.04.483-.049.725l-.022-.011c0,.053-.009.105-.013.159a.472.472,0,0,0-.034.192l-.022-.009c0,.048-.009.1-.011.144l-.023,0c0,.048-.008.1-.011.145l-.022-.018c0,.025-.011.074-.014.1a.391.391,0,0,0-.035.159l-.04-.014.015.051a1.107,1.107,0,0,0-.045.112,1.5,1.5,0,0,0-.066.171,1.307,1.307,0,0,0-.07.169,4.916,4.916,0,0,1-.3.577l.01.049-.03-.007c-.025.056-.06.108-.086.164a.76.76,0,0,0-.1.171.279.279,0,0,0-.068.1c-.049.066-.093.135-.137.2a.588.588,0,0,0-.068.1,1.632,1.632,0,0,0-.173.25l-.013,0a.853.853,0,0,0-.089.14l-.013-.007c-.032.06-.086.106-.119.166a.984.984,0,0,0-.141.18l-.012,0c-.044.072-.111.126-.158.2l-.03.036c-.059.067-.122.129-.176.2l-.07.067-.028.052-.014,0c-.13.168-.3.3-.433.464a.268.268,0,0,0-.07.069.549.549,0,0,0-.1.1.225.225,0,0,0-.069.068c-.139.115-.252.257-.4.365l0,.014-.052.029-.066.068c-.081.058-.141.142-.227.194v.013a.173.173,0,0,0-.077.068,1.318,1.318,0,0,0-.168.141l-.035.029c-.073.052-.137.115-.205.172a1.808,1.808,0,0,0-.168.139c-.172.134-.344.269-.512.408-.228.169-.456.34-.681.512-.044.027-.087.056-.129.085l0,.015a2.024,2.024,0,0,0-.241.155l0,.016a.221.221,0,0,0-.112.068c-.117.076-.233.153-.343.239a.212.212,0,0,0-.1.069.2.2,0,0,0-.1.068.226.226,0,0,0-.1.068.257.257,0,0,0-.1.069.2.2,0,0,0-.1.068,2.221,2.221,0,0,0-.269.168.416.416,0,0,0-.1.071c-.033.015-.065.031-.1.048l0,.017a1.308,1.308,0,0,0-.284.173,3.2,3.2,0,0,0-.34.2.889.889,0,0,0-.172.1.7.7,0,0,0-.171.1.585.585,0,0,0-.169.1,1.336,1.336,0,0,0-.24.136c-.107.048-.2.116-.307.169q-.08.045-.162.087l.005.029-.049-.01a2.229,2.229,0,0,1-.331.184l.005.031-.06-.016-.009.036c-.181.066-.339.182-.517.256l.008.018-.085.038-.035,0c-.171.122-.383.181-.546.314l-.05-.016.008.042h-.139c-.074-.046-.156-.077-.231-.122-.059-.029-.116-.06-.175-.085-.05-.041-.12-.051-.165-.1l-.049.006-.008-.046-.062.015.006-.03a3.858,3.858,0,0,1-.468-.255l-.032.011a1.445,1.445,0,0,0-.309-.183c-.031-.017-.062-.034-.091-.053a2.269,2.269,0,0,0-.216-.115c-.155-.1-.316-.189-.479-.271a.755.755,0,0,0-.252-.137l.01-.017a.51.51,0,0,1-.131-.081l-.046.008,0-.029a.848.848,0,0,0-.175-.087l.006-.015a.794.794,0,0,0-.177-.088l.009-.018-.1-.047a.655.655,0,0,0-.169-.1c-.119-.087-.246-.164-.373-.239-.067-.048-.137-.093-.207-.136-.274-.18-.544-.365-.817-.545a.229.229,0,0,0-.1-.067.9.9,0,0,0-.138-.1c-.033-.024-.066-.048-.1-.069a2.85,2.85,0,0,0-.238-.17c-.133-.107-.275-.2-.409-.307s-.272-.217-.419-.309v-.012c-.054-.04-.106-.082-.161-.121a1.55,1.55,0,0,0-.171-.136.965.965,0,0,0-.18-.141l0-.012c-.071-.045-.126-.109-.2-.155s-.11-.1-.168-.143c-.022-.022-.046-.043-.069-.064-.075-.049-.129-.123-.2-.172a.886.886,0,0,0-.066-.067l-.043-.03c-.089-.081-.174-.167-.264-.246a.263.263,0,0,0-.083-.067l.006-.026-.046,0,.01-.038h-.04l0-.04-.034.013.01-.04-.039.008v-.037h-.036v-.024l-.045-.036q-.155-.149-.3-.3l-.036-.045H141.2v-.035h-.037l.009-.028-.033-.009-.008-.034-.033.013.012-.044-.045.007.01-.044-.032.007a2.992,2.992,0,0,0-.277-.315l-.033-.043-.064-.067c-.045-.058-.095-.111-.144-.165l-.029-.036c-.172-.216-.355-.425-.506-.656l-.042-.024a.45.45,0,0,0-.1-.169c-.067-.1-.134-.206-.2-.307s-.108-.187-.17-.276a1.371,1.371,0,0,0-.081-.149l-.054-.089c-.05-.118-.117-.227-.173-.341-.017-.04-.032-.079-.045-.119l-.019,0a1.228,1.228,0,0,0-.1-.25c-.017-.054-.037-.107-.052-.161l-.016.007c-.008-.042-.018-.082-.03-.122s-.027-.068-.042-.1-.01-.068-.013-.091l-.022.009-.008-.119-.026.018c0-.049-.005-.1-.009-.147l-.022.008c0-.108-.043-.211-.051-.319l-.019.014c0-.084-.009-.168-.015-.252l-.022.017c.006-.132-.009-.262-.014-.393l-.021.015q.013-7.9,0-15.8a1.143,1.143,0,0,1,.31-.342l.035-.031c.071-.045.123-.114.2-.157l0-.013a.97.97,0,0,0,.18-.141,1.45,1.45,0,0,0,.171-.135c.182-.136.365-.27.546-.408.114-.068.218-.155.333-.222l0-.016a.661.661,0,0,0,.109-.05l-.006-.019a.831.831,0,0,0,.109-.047l-.008-.018a2.994,2.994,0,0,0,.386-.239c.09-.043.168-.1.255-.152s.177-.1.258-.157a1.105,1.105,0,0,0,.15-.082l.088-.052c.076-.032.143-.08.218-.115a1.029,1.029,0,0,0,.092-.062l.035,0a1.338,1.338,0,0,1,.2-.115l.1-.051c.07-.031.138-.067.205-.1s.139-.065.207-.1a1.219,1.219,0,0,1,.119-.046l.006-.03.066.006v-.031a.771.771,0,0,0,.257-.109l.047,0,0-.03c.084-.011.153-.068.237-.082l0-.022a.468.468,0,0,0,.181-.065.827.827,0,0,0,.172-.07c.053-.016.1-.036.158-.051l0-.016a.762.762,0,0,0,.119-.032.489.489,0,0,1,.174-.046l-.064-.025.154-.012-.011-.021a.988.988,0,0,0,.124-.031l.1-.036.1-.034.1-.033c.034-.012.068-.025.1-.039l.1-.012-.018-.02a.8.8,0,0,0,.261-.072l.1-.011-.024-.021a.388.388,0,0,0,.162-.032c.077-.018.154-.04.232-.053l-.01-.02.144-.008-.007-.026.144-.009-.01-.022c.107,0,.207-.041.312-.053l0-.015a.9.9,0,0,0,.19-.033,1.008,1.008,0,0,0,.167-.035c.052-.005.1-.014.156-.017V171.9c.059,0,.118-.008.177-.011l-.011-.024a.731.731,0,0,0,.256-.031l.2-.017-.016-.02a.919.919,0,0,0,.3-.032c.089,0,.178-.012.268-.016l-.027-.022c.132.011.263-.011.4-.011l-.015-.022m.407,4.958.005.186h-.048l.047.04,0,.049-.049.035h.052q-.005.619,0,1.238h-.037l.02.054c-.1,0-.21.011-.314.013l0,.027c-.081,0-.161,0-.242.006l.008.027a1.287,1.287,0,0,0-.211.011l.006.02c-.06,0-.118.008-.177.011l.006.024-.152.005.021.027c-.061,0-.121.007-.182.011l.005.025c-.047,0-.094.006-.141.01l.006.019a2.066,2.066,0,0,0-.244.054l0,.019-.113.008.016.02a1.156,1.156,0,0,0-.211.054v.015c-.059.012-.115.033-.173.046l.008.02a1.109,1.109,0,0,0-.174.051l0,.019a1.433,1.433,0,0,0-.426.216l-.031-.006c-.144.1-.291.188-.434.285l.005.016a.382.382,0,0,0-.148.1,1.588,1.588,0,0,0-.239.212h-.023v.022l-.045.045h-.024l0,.036H145.1a1.987,1.987,0,0,0-.194.24l-.011-.007a3.189,3.189,0,0,0-.223.336.8.8,0,0,0-.138.287l-.033,0,.01.066-.03.005c-.015.052-.034.1-.052.153a.486.486,0,0,0-.031.12l-.018-.005-.015.092a1.2,1.2,0,0,0-.035.13,1.639,1.639,0,0,0-.063.468l-.02-.011c-.011.217-.009.434,0,.651l.02-.006a.963.963,0,0,0,.032.33,1.413,1.413,0,0,0,.065.334,1.291,1.291,0,0,0,.07.237c.017.053.034.106.049.16l.017-.006a.841.841,0,0,0,.084.222c.042.09.1.173.137.263l.017-.005a.537.537,0,0,0,.1.182,2.116,2.116,0,0,0,.283.342l0,.028.03-.01,0,.037.04,0-.016.035.046-.005,0,.044.043-.006-.011.034.036.008.01.036.019-.013.042.045v.014c.069.048.123.113.193.16l.038.031a.873.873,0,0,0,.132.1,2.018,2.018,0,0,0,.24.171,1.593,1.593,0,0,0,.272.17.551.551,0,0,0,.169.1c.126.093.277.146.405.235l.05,0,.008.043.059-.01.009.044.06-.01.007.043.061-.009.007.031c.04.013.079.03.119.045a.872.872,0,0,0,.254.106v.032l.05-.007a.976.976,0,0,0,.243.11.814.814,0,0,0,.169.069.641.641,0,0,0,.171.067,1.554,1.554,0,0,0,.168.072.9.9,0,0,0,.12.032l0,.019c.058.015.115.037.175.048l-.005.017a.688.688,0,0,0,.205.049c.007,1.1,0,2.193,0,3.289-.059,0-.117,0-.176,0v-.018c-.125-.005-.25-.017-.375-.017v-.019c-.092-.007-.183-.016-.275-.016l.009-.021c-.071-.006-.142-.012-.213-.013l.009-.022c-.059,0-.118-.011-.177-.012l0-.021c-.058-.005-.117-.012-.174-.013l.007-.021-.125-.014c-.18-.053-.365-.093-.547-.14-.044-.015-.09-.022-.135-.034a.366.366,0,0,0-.154-.03l.007-.021-.095-.014a1.02,1.02,0,0,0-.134-.036,1.086,1.086,0,0,0-.239-.066.82.82,0,0,0-.26-.069l.015-.019-.1-.012c-.1-.042-.2-.069-.3-.107a.847.847,0,0,0-.121-.033l.006-.02-.118-.013.021-.027a.91.91,0,0,1-.234-.076.677.677,0,0,0-.184-.068v-.017a1.888,1.888,0,0,0-.238-.084l0-.033-.047,0a.362.362,0,0,0-.125-.05q0,1.362,0,2.725a1.451,1.451,0,0,0,.163.066.9.9,0,0,0,.171.068,1.161,1.161,0,0,0,.174.069l.1.038a1.256,1.256,0,0,0,.122.031l-.007.02.112.009-.012.023.092.013.1.04a.489.489,0,0,0,.154.027l-.01.028.115,0-.01.019a1.531,1.531,0,0,0,.285.053l-.02.017a2.466,2.466,0,0,0,.29.051l-.012.018.128.015a.573.573,0,0,0,.225.033l-.017.025c.063,0,.125.007.188.008l-.018.022a2,2,0,0,0,.221.012l-.016.024c.073.005.146.01.219.011l-.012.019c.082.007.164.015.246.014l0,.018a2.409,2.409,0,0,0,.313.014l-.012.02a3.984,3.984,0,0,0,.418.015l0,.021c.241.008.483.022.725.013l-.017.023.1,0c-.018.076.041.2-.056.234l.055,0q0,.129,0,.26l-.021-.031,0,.092.023-.015c-.01.159,0,.319-.006.478l-.049.033.054,0q0,.175,0,.352l-.055,0,.05.032c.01.161,0,.324.006.485l-.022-.029v.1l.025-.029c0,.031-.009.095-.012.126.165,0,.329,0,.494,0l.014.059.014-.06c.3,0,.594.008.891-.005,0-.714,0-1.427,0-2.141a2.476,2.476,0,0,0,.28-.014l-.018-.023a1.492,1.492,0,0,0,.259-.009l-.022-.021a2.027,2.027,0,0,0,.253-.015l-.008-.02c.062,0,.124-.007.185-.01l-.021-.022a1.156,1.156,0,0,0,.364-.068l.1-.01-.022-.026.151-.006-.009-.027a.351.351,0,0,0,.153-.033l.093-.014-.011-.023.111-.008-.007-.02c.041-.009.081-.02.121-.032a1.025,1.025,0,0,0,.17-.071c.078-.016.143-.067.222-.082l0-.03.07.005-.005-.03a.606.606,0,0,0,.2-.082l.09-.054a2.181,2.181,0,0,0,.341-.2,4.142,4.142,0,0,0,.5-.395v-.026l.036,0,0-.024.045-.045h.022v-.024a2.394,2.394,0,0,0,.314-.374.6.6,0,0,0,.068-.1l.1-.134c0-.008,0-.025,0-.033a1.219,1.219,0,0,0,.183-.343,1.062,1.062,0,0,0,.071-.17.625.625,0,0,0,.031-.126l.018.018.011-.1a.287.287,0,0,0,.034-.153l.022.007a1.263,1.263,0,0,0,.006-.183l.027.021c.005-.074.012-.148.013-.221l.018.01a6.754,6.754,0,0,0,0-.928l-.022.011a2.048,2.048,0,0,0-.009-.254l-.022.022c0-.073-.006-.144-.013-.216l-.023,0c0-.046-.006-.092-.01-.138H154.6c0-.029-.005-.087-.007-.115l-.019.025a.492.492,0,0,0-.034-.131.553.553,0,0,0-.079-.171l0-.044-.029-.01-.03-.079a3,3,0,0,0-.211-.34c-.038-.056-.085-.106-.121-.164l-.012.005a1.211,1.211,0,0,0-.194-.227,2.439,2.439,0,0,0-.328-.3l0-.012c-.057-.036-.1-.086-.161-.121a.98.98,0,0,0-.135-.1.3.3,0,0,0-.115-.07l.006-.017a.407.407,0,0,0-.11-.049l.006-.019c-.032-.017-.065-.033-.1-.047a.629.629,0,0,0-.17-.1,2.89,2.89,0,0,0-.376-.205c-.049-.04-.113-.051-.161-.09a.837.837,0,0,1-.143-.067,3.857,3.857,0,0,0-.422-.185l0-.019c-.107-.025-.2-.1-.3-.116v-.016c-.078-.023-.15-.062-.227-.087a.452.452,0,0,0-.185-.066l.006-.02a1.147,1.147,0,0,0-.176-.049l0-.022a1.972,1.972,0,0,1-.227-.081c-.056-.025-.112-.049-.169-.071a.992.992,0,0,0-.119-.033l.006-.026h-.1q0-1.566,0-3.131c.081.005.162.008.244.007l-.012.019c.086,0,.172.013.259.016a.893.893,0,0,0,.3.033l-.024.023c.055,0,.11.009.166.013a.674.674,0,0,0,.228.032l-.011.022c.059,0,.119.01.178.012l-.007.018c.106.013.209.046.316.052l-.009.021.141.009,0,.025.142.01-.01.019c.082.016.163.041.246.053l0,.02.14.01-.01.03.119,0-.019.026.117.009-.007.023.09.013.1.042c.04.011.081.021.122.03l-.006.021.156.011-.071.025a.445.445,0,0,1,.176.047.762.762,0,0,0,.118.032l0,.016c.066.015.208.108.213-.013a.754.754,0,0,0,.067-.176.51.51,0,0,0,.069-.17.453.453,0,0,0,.066-.185l.018.008a1.628,1.628,0,0,0,.051-.176h.018a1.509,1.509,0,0,0,.05-.171h.019c.017-.057.039-.112.05-.17h.018c.016-.057.04-.112.05-.17h.018a1.468,1.468,0,0,0,.05-.172l.018.007c.016-.059.039-.117.05-.177l.018.006a1.575,1.575,0,0,0,.049-.175h.019c.017-.058.038-.114.05-.173l.019,0c.017-.079.057-.15.081-.226.025-.056.049-.112.072-.169.01-.029.018-.059.026-.089l-.06.006a.331.331,0,0,0-.187-.075v-.021a1.857,1.857,0,0,1-.226-.083l-.1-.036a.612.612,0,0,0-.131-.034l.024-.016c-.182-.034-.347-.133-.532-.151l.023-.02-.119-.009.006-.018c-.075-.017-.148-.038-.223-.053a.369.369,0,0,0-.157-.033l0-.022-.14-.01,0-.024-.14-.011v-.018c-.1-.013-.195-.04-.293-.056a.646.646,0,0,0-.223-.029l.015-.023c-.061,0-.121-.01-.181-.01l0-.02c-.069-.006-.138-.012-.206-.014v-.018c-.073-.007-.145-.013-.218-.018a.859.859,0,0,0-.3-.031l.011-.019a2.576,2.576,0,0,0-.355-.014l.018-.021a4.158,4.158,0,0,0-.492-.012l.014-.024-.183,0c0-.515,0-1.03,0-1.545-.107,0-.213,0-.319,0l.031-.023q-.405,0-.81,0l.022.021C148.975,176.653,148.866,176.654,148.756,176.652Z" transform="translate(-118.969 -140.061)"/>
    <path id="Pfad_150" data-name="Pfad 150" class="cls-1" d="M396.591,441.163l.145-.008-.01-.025c.094,0,.188-.014.282-.021,0,.818,0,1.637,0,2.455a2.7,2.7,0,0,0-.278-.1v-.033l-.064.011-.007-.031-.083-.044-.046.012,0-.03c-.054-.028-.108-.058-.162-.084-.067-.047-.135-.1-.206-.136a1.247,1.247,0,0,0-.18-.142l0-.017-.046-.043-.029.008.008-.04h-.026a.181.181,0,0,0-.069-.079l-.036-.068a.563.563,0,0,1-.085-.192l-.021.006c0-.048-.008-.1-.012-.143l-.023.007c0-.127,0-.254,0-.382h.021c0-.057.012-.114.014-.171h.018a1.093,1.093,0,0,1,.7-.633c.035-.011.07-.023.1-.037l.093-.014Z" transform="translate(-367.24 -400.332)"/>
    <path id="Pfad_151" data-name="Pfad 151" class="cls-1" d="M477.57,619.29a6.381,6.381,0,0,1,.6.288.525.525,0,0,0,.182.105l0,.016c.087.043.154.115.242.155l-.006.015a.778.778,0,0,1,.344.448l.028-.01c0,.03.007.09.01.12l.025-.013a2.751,2.751,0,0,1,0,.521l-.022,0c0,.047-.008.093-.012.14l-.037-.007.01.071-.047.008.017.045a.241.241,0,0,0-.079.108,1.252,1.252,0,0,1-.34.306.364.364,0,0,0-.11.073h-.057l.009.029a1.053,1.053,0,0,0-.173.052l0,.015a.457.457,0,0,0-.12.037l-.1.013.017.022-.148.01.006.023c-.08,0-.16.012-.239.022C477.571,621.031,477.573,620.16,477.57,619.29Z" transform="translate(-446.373 -572.443)"/>
  </g>
</svg>
