<svg xmlns="http://www.w3.org/2000/svg" viewBox="0 0 70.69 21.462">
  <defs>
    <style>
      .cls-1 {
        fill: #f78e1e;
      }

      .cls-1, .cls-2 {
        fill-rule: evenodd;
      }

      .cls-2 {
        fill: #fff;
      }
    </style>
  </defs>
  <g id="Gruppe_30" data-name="Gruppe 30" transform="translate(-38.818 -23)">
    <g id="Download" transform="translate(38.818 23)">
      <path id="Pfad_144" data-name="Pfad 144" class="cls-1" d="M106.67,7.676l-3.152,2.635,3.236,2.715,6.387-5.35Z" transform="translate(-47.412 -3.516)"/>
      <path id="Pfad_145" data-name="Pfad 145" class="cls-2" d="M54.8,0,67.525,10.728l-4.036,3.386L55.137,4.16H49.7l-14.559,17.3h5.434L52.417,7.39l3.418,4.074H51.375L49.1,14.178h9.014L60.733,17.3h5.429l4.6-3.858,4.6,3.859h6.47L61.263,0Z" transform="translate(-16.093)"/>
      <path id="Pfad_146" data-name="Pfad 146" class="cls-2" d="M124.882,8.314h-.629v1.721h-.261V8.314h-.63V8.094h1.52Zm2.308-.221v1.942h-.23V8.608c0-.019,0-.039,0-.061s0-.044,0-.066L126.3,9.7a.1.1,0,0,1-.095.061h-.038a.1.1,0,0,1-.095-.061l-.68-1.219a1.187,1.187,0,0,1,.008.133v1.427h-.23V8.094h.194a.168.168,0,0,1,.054.007.077.077,0,0,1,.036.038l.671,1.2c.011.022.021.044.032.068s.02.047.029.072c.009-.024.019-.049.029-.072a.653.653,0,0,1,.033-.068l.659-1.194a.072.072,0,0,1,.036-.038A.174.174,0,0,1,127,8.094Z" transform="translate(-56.5 -3.707)"/>
      <path id="Pfad_147" data-name="Pfad 147" class="cls-2" d="M22.95,7.676l-3.27,8.983L16.411,7.676H10.982L7.7,16.681,4.426,7.676H0L4.783,20.817h5.843L13.7,12.38l3.071,8.437h5.826L27.376,7.676Z" transform="translate(0 -3.516)"/>
    </g>
  </g>
</svg>
